<svg version="1.1" id="Layer_1" xmlns="http://www.w3.org/2000/svg" xmlns:xlink="http://www.w3.org/1999/xlink" x="0px" y="0px"
	 width="100%" viewBox="0 0 992 989" enable-background="new 0 0 992 989" xml:space="preserve">
<path fill="#000000" opacity="1.000000" stroke="none" 
	d="
M1.000000,989.000000 
	C1.000000,659.712830 1.000000,330.425659 1.000000,1.069254 
	C331.574127,1.069254 662.148254,1.069254 993.000000,1.069254 
	C993.000000,330.027985 993.000000,659.056030 992.531372,988.542053 
	C890.104736,989.000000 788.146790,988.998962 686.188843,989.005310 
	C683.524353,989.005493 680.859863,989.085327 677.710754,989.097290 
	C661.777893,989.069458 646.329651,989.072144 630.420654,989.052734 
	C542.720825,989.020569 455.481781,989.004700 368.242767,989.042236 
	C366.495026,989.042969 364.747589,989.666809 363.000000,990.000000 
	C347.638641,990.000000 332.277252,990.000000 316.153076,989.712097 
	C313.074188,989.282776 310.758148,989.018188 308.442078,989.017700 
	C205.961380,988.997192 103.480690,989.000000 1.000000,989.000000 
M48.020100,676.029907 
	C48.013481,763.440063 48.005936,850.850159 48.008881,938.260315 
	C48.008926,939.587280 48.138664,940.914246 48.799400,942.793213 
	C49.459068,942.867981 50.118729,943.008240 50.778400,943.008301 
	C137.772430,943.011719 224.766464,943.009399 311.760468,942.956970 
	C313.117889,942.956177 314.474884,942.332214 315.959869,941.069641 
	C315.973175,889.625916 316.002106,838.182251 315.994537,786.738525 
	C315.989227,750.612610 315.934204,714.486633 315.981537,677.542847 
	C315.955688,676.724915 315.929840,675.906921 315.277588,674.564514 
	C313.640533,674.376526 312.003510,674.024597 310.366394,674.024109 
	C224.853836,673.997375 139.341293,673.993286 53.828758,674.046570 
	C51.922073,674.047791 50.015823,674.738647 48.020100,676.029907 
M313.021179,48.035267 
	C224.811829,48.035267 136.602493,48.035267 47.999908,48.035267 
	C47.999908,50.496140 47.999912,52.299080 47.999912,54.102020 
	C47.999920,138.385239 47.998825,222.668472 48.007854,306.951691 
	C48.008034,308.612854 48.126869,310.274048 48.594456,312.672028 
	C49.913925,312.781372 51.233383,312.986176 52.552872,312.986389 
	C138.352982,313.001465 224.153107,313.001801 309.953217,312.986115 
	C311.537842,312.985809 313.122406,312.778473 314.725739,312.666443 
	C314.846313,311.090607 314.987885,310.103058 314.988007,309.115509 
	C314.998962,223.481995 315.003876,137.848480 314.955719,52.215000 
	C314.954987,50.873417 314.291595,49.532211 313.021179,48.035267 
M678.711609,627.578857 
	C680.023499,627.718933 681.335327,627.981323 682.647217,627.981567 
	C768.837036,628.001099 855.026917,628.004700 941.216736,627.957153 
	C942.756775,627.956299 944.296448,627.319946 945.961060,626.052673 
	C945.972534,539.530884 945.984314,453.009094 945.988647,366.487305 
	C945.988708,365.658417 945.887451,364.829498 945.425049,363.264984 
	C944.268127,363.176819 943.111267,363.011597 941.954346,363.011444 
	C855.525574,362.999451 769.096802,362.998932 682.668030,363.014893 
	C681.233643,363.015137 679.799316,363.229462 678.000000,363.373016 
	C678.000000,365.556366 678.000000,367.361328 678.000000,369.166290 
	C678.000000,453.430176 677.998901,537.694092 678.008179,621.957947 
	C678.008362,623.619019 678.130371,625.280090 678.711609,627.578857 
M48.669758,627.595886 
	C49.983349,627.730286 51.296913,627.982056 52.610535,627.982300 
	C138.820099,628.001038 225.029678,628.004700 311.239227,627.956848 
	C312.774139,627.955994 314.308685,627.316345 315.976410,626.048950 
	C315.984222,539.893127 315.992767,453.737274 315.991791,367.581421 
	C315.991791,366.419800 315.872192,365.258209 315.474579,363.307220 
	C314.152679,363.204834 312.830780,363.013000 311.508881,363.012787 
	C225.229263,362.998627 138.949631,362.998474 52.670010,363.013031 
	C51.232880,363.013275 49.795780,363.209320 47.999729,363.340179 
	C47.999729,365.500946 47.999729,367.304382 47.999729,369.107849 
	C47.999729,453.388702 47.998726,537.669556 48.007000,621.950439 
	C48.007164,623.612305 48.116028,625.274170 48.669758,627.595886 
M678.823914,312.811279 
	C679.484375,312.880280 680.144836,313.009674 680.805298,313.009705 
	C767.790344,313.012115 854.775330,313.009644 941.760376,312.957001 
	C943.117798,312.956177 944.474792,312.332489 945.960449,311.082092 
	C945.972046,224.431488 945.983887,137.780884 945.989441,51.130276 
	C945.989502,50.299179 945.904236,49.468075 945.209473,48.155926 
	C944.046875,48.103897 942.884338,48.006416 941.721741,48.006321 
	C855.429138,47.999260 769.136597,47.998703 682.843994,48.010075 
	C681.392639,48.010269 679.941345,48.162495 677.999878,48.271221 
	C677.999878,50.359413 677.999878,52.147400 677.999878,53.935383 
	C677.999878,138.395493 677.998535,222.855591 678.009949,307.315704 
	C678.010193,308.974731 678.160522,310.633728 678.823914,312.811279 
M628.018799,48.034821 
	C539.821411,48.034821 451.624023,48.034821 363.229095,48.034821 
	C363.129608,49.783501 363.008484,50.919106 363.008392,52.054714 
	C363.000244,138.320602 362.995544,224.586502 363.047913,310.852356 
	C363.048889,312.504669 363.732239,314.156616 365.009705,315.971161 
	C452.003113,315.980621 538.996521,315.990662 625.989929,315.992859 
	C626.986389,315.992889 627.982788,315.891632 629.730835,315.454956 
	C629.819336,314.631470 629.985229,313.807953 629.985352,312.984467 
	C629.998169,226.060501 630.003296,139.136536 629.955444,52.212593 
	C629.954712,50.871506 629.290955,49.530788 628.018799,48.034821 
M363.052460,675.982056 
	C363.032776,763.455200 363.011169,850.928406 363.010529,938.401550 
	C363.010498,939.824829 363.266144,941.248108 363.407928,942.728149 
	C365.041077,942.836853 366.191833,942.980347 367.342560,942.980469 
	C453.816406,942.991333 540.290222,942.995605 626.764099,942.949707 
	C628.118958,942.948975 629.473511,942.322266 630.959106,941.060120 
	C630.971252,853.209229 630.983887,765.358398 630.988953,677.507507 
	C630.989014,676.678528 630.889587,675.849548 630.343262,674.360901 
	C629.192932,674.241089 628.042603,674.016479 626.892273,674.016296 
	C540.552307,673.999573 454.212402,673.995117 367.872498,674.044739 
	C366.323395,674.045593 364.774689,674.711853 363.052460,675.982056 
M678.355530,675.429016 
	C678.234436,676.913452 678.007690,678.397888 678.007385,679.882324 
	C677.990417,765.705505 677.990479,851.528625 678.004517,937.351807 
	C678.004761,939.109436 678.188171,940.867004 678.290466,942.701782 
	C680.000488,942.824829 681.147278,942.979431 682.294128,942.979553 
	C768.783875,942.991272 855.273560,942.995422 941.763306,942.949768 
	C943.118469,942.949036 944.473267,942.322388 945.959106,941.060120 
	C945.972717,886.401550 946.001038,831.742981 945.994629,777.084412 
	C945.990662,743.090393 945.934204,709.096436 945.276611,674.575073 
	C943.307312,674.383362 941.338135,674.024658 939.368774,674.024048 
	C854.992065,673.996155 770.615356,673.994751 686.238647,674.030579 
	C684.111450,674.031494 681.984375,674.485779 679.485107,674.851013 
	C679.485107,674.851013 679.137573,675.031921 678.355530,675.429016 
z"/>
<path fill="#3F3F3F" opacity="1.000000" stroke="none" 
	d="
M1.000000,989.500000 
	C103.480690,989.000000 205.961380,988.997192 308.442078,989.017700 
	C310.758148,989.018188 313.074188,989.282776 315.695129,989.712097 
	C211.000000,990.000000 106.000000,990.000000 1.000000,989.500000 
z"/>
<path fill="#3F3F3F" opacity="1.000000" stroke="none" 
	d="
M678.195374,989.127930 
	C680.859863,989.085327 683.524353,989.005493 686.188843,989.005310 
	C788.146790,988.998962 890.104736,989.000000 992.531372,989.000000 
	C991.502563,989.333374 990.005249,989.957581 988.507629,989.958435 
	C903.625427,990.005127 818.743286,990.000000 733.861084,990.000000 
	C715.553162,990.000000 697.245239,990.000000 678.518616,989.782227 
	C678.099915,989.564453 678.195374,989.127930 678.195374,989.127930 
z"/>
<path fill="#3F3F3F" opacity="1.000000" stroke="none" 
	d="
M363.468658,990.000000 
	C364.747589,989.666809 366.495026,989.042969 368.242767,989.042236 
	C455.481781,989.004700 542.720825,989.020569 630.457031,989.283081 
	C630.954224,989.535583 631.000000,990.000000 631.000000,990.000000 
	C541.979126,990.000000 452.958221,990.000000 363.468658,990.000000 
z"/>
<path fill="#101010" opacity="1.000000" stroke="none" 
	d="
M631.468628,990.000000 
	C631.000000,990.000000 630.954224,989.535583 630.917847,989.305237 
	C646.329651,989.072144 661.777893,989.069458 677.710754,989.097290 
	C678.195374,989.127930 678.099915,989.564453 678.049927,989.782227 
	C662.645752,990.000000 647.291565,990.000000 631.468628,990.000000 
z"/>
<path fill="#29B24C" opacity="1.000000" stroke="none" 
	d="
M630.836548,675.020569 
	C630.889587,675.849548 630.989014,676.678528 630.988953,677.507507 
	C630.983887,765.358398 630.971252,853.209229 630.436401,941.524780 
	C543.420227,941.990662 456.926758,941.966553 370.433441,942.065674 
	C365.988129,942.070740 363.885040,941.301941 363.894196,936.129456 
	C364.048157,849.136414 364.021698,762.143066 364.500916,675.104614 
	C453.589874,675.046448 542.213196,675.033508 630.836548,675.020569 
z"/>
<path fill="#29B24C" opacity="1.000000" stroke="none" 
	d="
M945.901245,675.102417 
	C945.934204,709.096436 945.990662,743.090393 945.994629,777.084412 
	C946.001038,831.742981 945.972717,886.401550 945.436401,941.524780 
	C858.814697,941.990845 772.715759,941.992920 686.616821,941.992188 
	C679.002441,941.992188 678.994751,941.983826 678.994629,934.323303 
	C678.992737,849.889709 678.992371,765.456116 678.999329,681.022522 
	C678.999512,679.025635 679.089478,677.028809 679.137573,675.031921 
	C679.137573,675.031921 679.485107,674.851013 680.147217,674.880066 
	C737.721985,674.939453 794.634766,674.963867 851.547485,675.002319 
	C882.998718,675.023560 914.449951,675.068298 945.901245,675.102417 
z"/>
<path fill="#F47E2C" opacity="1.000000" stroke="none" 
	d="
M628.979248,315.837646 
	C627.982788,315.891632 626.986389,315.992889 625.989929,315.992859 
	C538.996521,315.990662 452.003113,315.980621 364.553589,315.432922 
	C364.065704,228.078796 364.062927,141.262863 363.921722,54.447159 
	C363.914185,49.810959 365.823212,48.927792 369.909363,48.937706 
	C411.900848,49.039577 453.892639,48.985645 495.884369,49.002869 
	C540.208313,49.021053 584.532227,49.069344 628.900146,49.563667 
	C628.955811,138.627777 628.967529,227.232712 628.979248,315.837646 
z"/>
<path fill="#29B24C" opacity="1.000000" stroke="none" 
	d="
M945.833435,364.000610 
	C945.887451,364.829498 945.988708,365.658417 945.988647,366.487305 
	C945.984314,453.009094 945.972534,539.530884 945.441528,626.520142 
	C857.951782,626.991638 770.981567,626.996521 684.011353,626.992920 
	C682.347290,626.992859 680.683228,626.891968 679.014648,626.379639 
	C679.006836,541.107422 679.002441,456.293732 679.001892,371.480011 
	C679.001892,364.015167 679.013855,364.002289 686.393433,364.002045 
	C772.873413,363.999146 859.353455,364.000427 945.833435,364.000610 
z"/>
<path fill="#F47E2C" opacity="1.000000" stroke="none" 
	d="
M315.808411,364.096588 
	C315.872192,365.258209 315.991791,366.419800 315.991791,367.581421 
	C315.992767,453.737274 315.984222,539.893127 315.452637,626.519287 
	C227.799957,626.993042 140.671051,626.997253 53.542133,626.992737 
	C52.045483,626.992676 50.548843,626.887634 49.039658,626.373596 
	C49.018105,540.770630 49.046200,455.625549 48.905575,370.480743 
	C48.897350,365.502899 50.252975,363.843048 55.376724,363.893768 
	C79.534904,364.132904 103.696770,363.991180 127.857307,364.001617 
	C190.507675,364.028687 253.158035,364.064362 315.808411,364.096588 
z"/>
<path fill="#F47E2C" opacity="1.000000" stroke="none" 
	d="
M315.903961,675.088989 
	C315.929840,675.906921 315.955688,676.724915 315.657990,678.085327 
	C301.119781,692.842651 286.905212,707.057556 272.690430,721.272339 
	C205.584137,788.378662 138.476517,855.483704 71.373764,922.593506 
	C65.170143,928.797852 58.998341,935.033997 52.519596,941.400269 
	C51.153221,941.697998 50.079029,941.850891 49.003273,941.534668 
	C49.005577,852.435242 49.009453,763.804871 49.476536,675.104736 
	C90.934578,675.023254 131.929413,674.994873 172.924255,675.004333 
	C220.584152,675.015320 268.244049,675.059326 315.903961,675.088989 
z"/>
<path fill="#2AB24C" opacity="1.000000" stroke="none" 
	d="
M52.811790,941.255432 
	C58.998341,935.033997 65.170143,928.797852 71.373764,922.593506 
	C138.476517,855.483704 205.584137,788.378662 272.690430,721.272339 
	C286.905212,707.057556 301.119781,692.842651 315.617920,678.494263 
	C315.934204,714.486633 315.989227,750.612610 315.994537,786.738525 
	C316.002106,838.182251 315.973175,889.625916 315.438416,941.534790 
	C230.009109,942.001038 145.101227,942.008423 60.193363,941.971924 
	C57.732742,941.970886 55.272316,941.504761 52.811790,941.255432 
z"/>
<path fill="#2AB24C" opacity="1.000000" stroke="none" 
	d="
M945.858826,48.636967 
	C945.904236,49.468075 945.989502,50.299179 945.989441,51.130276 
	C945.983887,137.780884 945.972046,224.431488 945.438721,311.541199 
	C859.836792,312.001404 774.756592,312.007477 689.676453,311.977539 
	C687.372925,311.976746 685.069580,311.587067 682.997437,311.084656 
	C768.633057,225.367554 854.037781,139.944901 939.438354,54.518101 
	C940.968384,52.987530 942.449219,51.407753 944.208496,49.728546 
	C944.928894,49.283092 945.393860,48.960026 945.858826,48.636967 
z"/>
<path fill="#5A805D" opacity="1.000000" stroke="none" 
	d="
M678.746521,675.230469 
	C679.089478,677.028809 678.999512,679.025635 678.999329,681.022522 
	C678.992371,765.456116 678.992737,849.889709 678.994629,934.323303 
	C678.994751,941.983826 679.002441,941.992188 686.616821,941.992188 
	C772.715759,941.992920 858.814697,941.990845 945.370972,941.988647 
	C944.473267,942.322388 943.118469,942.949036 941.763306,942.949768 
	C855.273560,942.995422 768.783875,942.991272 682.294128,942.979553 
	C681.147278,942.979431 680.000488,942.824829 678.290466,942.701782 
	C678.188171,940.867004 678.004761,939.109436 678.004517,937.351807 
	C677.990479,851.528625 677.990417,765.705505 678.007385,679.882324 
	C678.007690,678.397888 678.234436,676.913452 678.746521,675.230469 
z"/>
<path fill="#5A805D" opacity="1.000000" stroke="none" 
	d="
M364.035309,675.149780 
	C364.021698,762.143066 364.048157,849.136414 363.894196,936.129456 
	C363.885040,941.301941 365.988129,942.070740 370.433441,942.065674 
	C456.926758,941.966553 543.420227,941.990662 630.370972,941.988647 
	C629.473511,942.322266 628.118958,942.948975 626.764099,942.949707 
	C540.290222,942.995605 453.816406,942.991333 367.342560,942.980469 
	C366.191833,942.980347 365.041077,942.836853 363.407928,942.728149 
	C363.266144,941.248108 363.010498,939.824829 363.010529,938.401550 
	C363.011169,850.928406 363.032776,763.455200 363.341583,675.544434 
	C363.630707,675.106812 364.035309,675.149780 364.035309,675.149780 
z"/>
<path fill="#C27A48" opacity="1.000000" stroke="none" 
	d="
M628.856140,49.104485 
	C584.532227,49.069344 540.208313,49.021053 495.884369,49.002869 
	C453.892639,48.985645 411.900848,49.039577 369.909363,48.937706 
	C365.823212,48.927792 363.914185,49.810959 363.921722,54.447159 
	C364.062927,141.262863 364.065704,228.078796 364.097351,315.351685 
	C363.732239,314.156616 363.048889,312.504669 363.047913,310.852356 
	C362.995544,224.586502 363.000244,138.320602 363.008392,52.054714 
	C363.008484,50.919106 363.129608,49.783501 363.229095,48.034821 
	C451.624023,48.034821 539.821411,48.034821 628.461792,48.341385 
	C628.904785,48.647953 628.856140,49.104485 628.856140,49.104485 
z"/>
<path fill="#C27A48" opacity="1.000000" stroke="none" 
	d="
M945.534180,48.396442 
	C945.393860,48.960026 944.928894,49.283092 943.852661,49.527321 
	C941.258545,49.298737 939.275757,49.018559 937.292847,49.018040 
	C853.636169,48.996204 769.979492,48.998150 686.322815,49.001408 
	C679.011658,49.001694 679.001648,49.015114 679.001526,56.534138 
	C679.000122,141.690643 679.002136,226.847153 678.814331,312.080322 
	C678.625427,312.157013 678.240845,312.292755 678.240845,312.292755 
	C678.160522,310.633728 678.010193,308.974731 678.009949,307.315704 
	C677.998535,222.855591 677.999878,138.395493 677.999878,53.935383 
	C677.999878,52.147400 677.999878,50.359413 677.999878,48.271221 
	C679.941345,48.162495 681.392639,48.010269 682.843994,48.010075 
	C769.136597,47.998703 855.429138,47.999260 941.721741,48.006321 
	C942.884338,48.006416 944.046875,48.103897 945.534180,48.396442 
z"/>
<path fill="#C27A48" opacity="1.000000" stroke="none" 
	d="
M315.641479,363.701904 
	C253.158035,364.064362 190.507675,364.028687 127.857307,364.001617 
	C103.696770,363.991180 79.534904,364.132904 55.376724,363.893768 
	C50.252975,363.843048 48.897350,365.502899 48.905575,370.480743 
	C49.046200,455.625549 49.018105,540.770630 48.821564,626.410645 
	C48.616013,626.905701 48.174175,626.936035 48.174175,626.936035 
	C48.116028,625.274170 48.007164,623.612305 48.007000,621.950439 
	C47.998726,537.669556 47.999729,453.388702 47.999729,369.107849 
	C47.999729,367.304382 47.999729,365.500946 47.999729,363.340179 
	C49.795780,363.209320 51.232880,363.013275 52.670010,363.013031 
	C138.949631,362.998474 225.229263,362.998627 311.508881,363.012787 
	C312.830780,363.013000 314.152679,363.204834 315.641479,363.701904 
z"/>
<path fill="#55995A" opacity="1.000000" stroke="none" 
	d="
M945.629272,363.632812 
	C859.353455,364.000427 772.873413,363.999146 686.393433,364.002045 
	C679.013855,364.002289 679.001892,364.015167 679.001892,371.480011 
	C679.002441,456.293732 679.006836,541.107422 678.809448,626.409790 
	C678.608643,626.898376 678.195557,626.941162 678.195557,626.941162 
	C678.130371,625.280090 678.008362,623.619019 678.008179,621.957947 
	C677.998901,537.694092 678.000000,453.430176 678.000000,369.166290 
	C678.000000,367.361328 678.000000,365.556366 678.000000,363.373016 
	C679.799316,363.229462 681.233643,363.015137 682.668030,363.014893 
	C769.096802,362.998932 855.525574,362.999451 941.954346,363.011444 
	C943.111267,363.011597 944.268127,363.176819 945.629272,363.632812 
z"/>
<path fill="#926D51" opacity="1.000000" stroke="none" 
	d="
M313.937439,48.190834 
	C314.291595,49.532211 314.954987,50.873417 314.955719,52.215000 
	C315.003876,137.848480 314.998962,223.481995 314.988007,309.115509 
	C314.987885,310.103058 314.846313,311.090607 314.725739,312.666443 
	C313.122406,312.778473 311.537842,312.985809 309.953217,312.986115 
	C224.153107,313.001801 138.352982,313.001465 52.552872,312.986389 
	C51.233383,312.986176 49.913925,312.781372 48.622452,312.286011 
	C48.650452,311.899994 49.109661,311.855042 49.568417,311.899353 
	C135.646805,311.962585 221.266449,311.982391 306.886078,311.998718 
	C313.987885,312.000061 313.998535,311.989075 313.998749,304.964966 
	C314.001282,221.510513 314.001312,138.056061 313.994324,54.601612 
	C313.994171,52.770981 313.903503,50.940361 313.877991,48.880219 
	C313.900909,48.650703 313.937439,48.190834 313.937439,48.190834 
z"/>
<path fill="#C27A48" opacity="1.000000" stroke="none" 
	d="
M49.109661,311.855042 
	C49.109661,311.855042 48.650452,311.899994 48.420403,311.917603 
	C48.126869,310.274048 48.008034,308.612854 48.007854,306.951691 
	C47.998825,222.668472 47.999920,138.385239 47.999912,54.102020 
	C47.999912,52.299080 47.999908,50.496140 47.999908,48.035267 
	C136.602493,48.035267 224.811829,48.035267 313.479309,48.113052 
	C313.937439,48.190834 313.900909,48.650703 313.421753,48.851952 
	C226.952484,49.035835 140.962326,49.055927 54.972443,48.906296 
	C49.913246,48.897495 48.911777,50.844997 48.923618,55.386532 
	C49.047863,103.047508 48.986027,150.708923 49.004272,198.370224 
	C49.018757,236.198502 49.073048,274.026764 49.109661,311.855042 
z"/>
<path fill="#5B7D5D" opacity="1.000000" stroke="none" 
	d="
M52.519608,941.400269 
	C55.272316,941.504761 57.732742,941.970886 60.193363,941.971924 
	C145.101227,942.008423 230.009109,942.001038 315.374542,941.999512 
	C314.474884,942.332214 313.117889,942.956177 311.760468,942.956970 
	C224.766464,943.009399 137.772430,943.011719 50.778400,943.008301 
	C50.118729,943.008240 49.459068,942.867981 48.705063,942.465088 
	C48.610729,942.137024 49.004833,942.003784 49.004837,942.003784 
	C50.079029,941.850891 51.153221,941.697998 52.519608,941.400269 
z"/>
<path fill="#5B7D5D" opacity="1.000000" stroke="none" 
	d="
M678.532349,312.552002 
	C678.240845,312.292755 678.625427,312.157013 679.142029,312.148499 
	C680.694458,311.886200 681.730286,311.632446 682.766113,311.378723 
	C685.069580,311.587067 687.372925,311.976746 689.676453,311.977539 
	C774.756592,312.007477 859.836792,312.001404 945.374512,311.999878 
	C944.474792,312.332489 943.117798,312.956177 941.760376,312.957001 
	C854.775330,313.009644 767.790344,313.012115 680.805298,313.009705 
	C680.144836,313.009674 679.484375,312.880280 678.532349,312.552002 
z"/>
<path fill="#4D5A50" opacity="1.000000" stroke="none" 
	d="
M364.500916,675.104614 
	C364.035309,675.149780 363.630707,675.106812 363.428253,675.087158 
	C364.774689,674.711853 366.323395,674.045593 367.872498,674.044739 
	C454.212402,673.995117 540.552307,673.999573 626.892273,674.016296 
	C628.042603,674.016479 629.192932,674.241089 630.589905,674.690735 
	C542.213196,675.033508 453.589874,675.046448 364.500916,675.104614 
z"/>
<path fill="#242425" opacity="1.000000" stroke="none" 
	d="
M315.590759,674.826782 
	C268.244049,675.059326 220.584152,675.015320 172.924255,675.004333 
	C131.929413,674.994873 90.934578,675.023254 49.252937,675.057739 
	C48.566135,675.080627 48.109379,675.107849 48.109375,675.107788 
	C50.015823,674.738647 51.922073,674.047791 53.828758,674.046570 
	C139.341293,673.993286 224.853836,673.997375 310.366394,674.024109 
	C312.003510,674.024597 313.640533,674.376526 315.590759,674.826782 
z"/>
<path fill="#4D5A50" opacity="1.000000" stroke="none" 
	d="
M678.453613,627.260010 
	C678.195557,626.941162 678.608643,626.898376 678.813904,626.868286 
	C680.683228,626.891968 682.347290,626.992859 684.011353,626.992920 
	C770.981567,626.996521 857.951782,626.991638 945.379150,626.983887 
	C944.296448,627.319946 942.756775,627.956299 941.216736,627.957153 
	C855.026917,628.004700 768.837036,628.001099 682.647217,627.981567 
	C681.335327,627.981323 680.023499,627.718933 678.453613,627.260010 
z"/>
<path fill="#62544A" opacity="1.000000" stroke="none" 
	d="
M48.421967,627.265991 
	C48.174175,626.936035 48.616013,626.905701 48.834106,626.868652 
	C50.548843,626.887634 52.045483,626.992676 53.542133,626.992737 
	C140.671051,626.997253 227.799957,626.993042 315.386139,626.982178 
	C314.308685,627.316345 312.774139,627.955994 311.239227,627.956848 
	C225.029678,628.004700 138.820099,628.001038 52.610535,627.982300 
	C51.296913,627.982056 49.983349,627.730286 48.421967,627.265991 
z"/>
<path fill="#926D51" opacity="1.000000" stroke="none" 
	d="
M628.900146,49.563667 
	C628.856140,49.104485 628.904785,48.647953 628.920715,48.418922 
	C629.290955,49.530788 629.954712,50.871506 629.955444,52.212593 
	C630.003296,139.136536 629.998169,226.060501 629.985352,312.984467 
	C629.985229,313.807953 629.819336,314.631470 629.355042,315.646301 
	C628.967529,227.232712 628.955811,138.627777 628.900146,49.563667 
z"/>
<path fill="#C27A48" opacity="1.000000" stroke="none" 
	d="
M48.064739,675.568848 
	C48.109379,675.107849 48.566135,675.080627 48.789734,675.127563 
	C49.009453,763.804871 49.005577,852.435242 49.003269,941.534668 
	C49.004833,942.003784 48.610729,942.137024 48.409302,942.189087 
	C48.138664,940.914246 48.008926,939.587280 48.008881,938.260315 
	C48.005936,850.850159 48.013481,763.440063 48.064739,675.568848 
z"/>
<path fill="#242425" opacity="1.000000" stroke="none" 
	d="
M945.588867,674.838745 
	C914.449951,675.068298 882.998718,675.023560 851.547485,675.002319 
	C794.634766,674.963867 737.721985,674.939453 680.333252,674.818909 
	C681.984375,674.485779 684.111450,674.031494 686.238647,674.030579 
	C770.615356,673.994751 854.992065,673.996155 939.368774,674.024048 
	C941.338135,674.024658 943.307312,674.383362 945.588867,674.838745 
z"/>
<path fill="#F47E2C" opacity="1.000000" stroke="none" 
	d="
M682.997437,311.084656 
	C681.730286,311.632446 680.694458,311.886200 679.330933,312.071808 
	C679.002136,226.847153 679.000122,141.690643 679.001526,56.534138 
	C679.001648,49.015114 679.011658,49.001694 686.322815,49.001408 
	C769.979492,48.998150 853.636169,48.996204 937.292847,49.018040 
	C939.275757,49.018559 941.258545,49.298737 943.597229,49.649704 
	C942.449219,51.407753 940.968384,52.987530 939.438354,54.518101 
	C854.037781,139.944901 768.633057,225.367554 682.997437,311.084656 
z"/>
<path fill="#F47E2C" opacity="1.000000" stroke="none" 
	d="
M49.568417,311.899353 
	C49.073048,274.026764 49.018757,236.198502 49.004272,198.370224 
	C48.986027,150.708923 49.047863,103.047508 48.923618,55.386532 
	C48.911777,50.844997 49.913246,48.897495 54.972443,48.906296 
	C140.962326,49.055927 226.952484,49.035835 313.398834,49.081467 
	C313.903503,50.940361 313.994171,52.770981 313.994324,54.601612 
	C314.001312,138.056061 314.001282,221.510513 313.998749,304.964966 
	C313.998535,311.989075 313.987885,312.000061 306.886078,311.998718 
	C221.266449,311.982391 135.646805,311.962585 49.568417,311.899353 
z"/>
</svg>